# Blender v3.3.0 OBJ File: 'valute.blend'
# www.blender.org
mtllib valute.mtl
o Cube
v 1.611690 0.679179 -8.370736
v 2.077909 -0.333474 -8.647307
v 1.611690 0.679179 -6.923879
v 2.077909 -0.333474 -6.647307
v -1.611690 0.679179 -8.370736
v -2.077909 -0.333474 -8.647307
v -1.611690 0.679179 -6.923879
v -2.077909 -0.333474 -6.647307
vt 0.625000 0.500000
vt 0.875000 0.500000
vt 0.875000 0.750000
vt 0.625000 0.750000
vt 0.375000 0.750000
vt 0.625000 1.000000
vt 0.375000 1.000000
vt 0.375000 0.000000
vt 0.625000 0.000000
vt 0.625000 0.250000
vt 0.375000 0.250000
vt 0.125000 0.500000
vt 0.375000 0.500000
vt 0.125000 0.750000
vn 0.0000 1.0000 0.0000
vn 0.0000 0.2635 0.9647
vn -0.9084 0.4182 0.0000
vn 0.0000 -1.0000 0.0000
vn 0.9084 0.4182 0.0000
vn 0.0000 0.2635 -0.9647
usemtl Material
s off
f 1/1/1 5/2/1 7/3/1 3/4/1
f 4/5/2 3/4/2 7/6/2 8/7/2
f 8/8/3 7/9/3 5/10/3 6/11/3
f 6/12/4 2/13/4 4/5/4 8/14/4
f 2/13/5 1/1/5 3/4/5 4/5/5
f 6/11/6 5/10/6 1/1/6 2/13/6
o Цилиндр
v 0.000000 -0.016176 -1.000000
v 0.000000 0.075612 -1.000000
v 0.382683 -0.016176 -0.923880
v 0.382683 0.075612 -0.923880
v 0.707107 -0.016176 -0.707107
v 0.707107 0.075612 -0.707107
v 0.923880 -0.016176 -0.382683
v 0.923880 0.075612 -0.382683
v 1.000000 -0.016176 0.000000
v 1.000000 0.075612 0.000000
v 0.923880 -0.016176 0.382683
v 0.923880 0.075612 0.382683
v 0.707107 -0.016176 0.707107
v 0.707107 0.075612 0.707107
v 0.382683 -0.016176 0.923880
v 0.382683 0.075612 0.923880
v 0.000000 -0.016176 1.000000
v 0.000000 0.075612 1.000000
v -0.382683 -0.016176 0.923880
v -0.382683 0.075612 0.923880
v -0.707107 -0.016176 0.707107
v -0.707107 0.075612 0.707107
v -0.923880 -0.016176 0.382683
v -0.923880 0.075612 0.382683
v -1.000000 -0.016176 0.000000
v -1.000000 0.075612 0.000000
v -0.923880 -0.016176 -0.382683
v -0.923880 0.075612 -0.382683
v -0.707107 -0.016176 -0.707107
v -0.707107 0.075612 -0.707107
v -0.382683 -0.016176 -0.923880
v -0.382683 0.075612 -0.923880
v -0.000000 0.075612 -0.882598
v 0.331653 0.075612 -0.816628
v 0.612816 0.075612 -0.628761
v 0.800682 0.075612 -0.347599
v 0.866652 0.075612 -0.015946
v 0.800682 0.075612 0.315708
v 0.612816 0.075612 0.596870
v 0.331653 0.075612 0.784737
v -0.000000 0.075612 0.850707
v -0.331653 0.075612 0.784737
v -0.612816 0.075612 0.596870
v -0.800682 0.075612 0.315708
v -0.866652 0.075612 -0.015946
v -0.800682 0.075612 -0.347599
v -0.612816 0.075612 -0.628761
v -0.331653 0.075612 -0.816628
v -0.000000 0.031436 -0.826630
v 0.313178 0.031436 -0.764335
v 0.578678 0.031436 -0.586934
v 0.756080 0.031436 -0.321434
v 0.818375 0.031436 -0.008256
v 0.756080 0.031436 0.304923
v 0.578678 0.031436 0.570422
v 0.313178 0.031436 0.747824
v -0.000000 0.031436 0.810119
v -0.313178 0.031436 0.747824
v -0.578678 0.031436 0.570422
v -0.756080 0.031436 0.304923
v -0.818375 0.031436 -0.008256
v -0.756080 0.031436 -0.321434
v -0.578678 0.031436 -0.586934
v -0.313178 0.031436 -0.764335
v 0.000000 0.016176 -1.000000
v 0.000000 -0.075612 -1.000000
v 0.382683 0.016176 -0.923880
v 0.382683 -0.075612 -0.923880
v 0.707107 0.016176 -0.707107
v 0.707107 -0.075612 -0.707107
v 0.923880 0.016176 -0.382683
v 0.923880 -0.075612 -0.382683
v 1.000000 0.016176 0.000000
v 1.000000 -0.075612 0.000000
v 0.923880 0.016176 0.382683
v 0.923880 -0.075612 0.382683
v 0.707107 0.016176 0.707107
v 0.707107 -0.075612 0.707107
v 0.382683 0.016176 0.923880
v 0.382683 -0.075612 0.923880
v 0.000000 0.016176 1.000000
v 0.000000 -0.075612 1.000000
v -0.382683 0.016176 0.923880
v -0.382683 -0.075612 0.923880
v -0.707107 0.016176 0.707107
v -0.707107 -0.075612 0.707107
v -0.923880 0.016176 0.382683
v -0.923880 -0.075612 0.382683
v -1.000000 0.016176 0.000000
v -1.000000 -0.075612 0.000000
v -0.923880 0.016176 -0.382683
v -0.923880 -0.075612 -0.382683
v -0.707107 0.016176 -0.707107
v -0.707107 -0.075612 -0.707107
v -0.382683 0.016176 -0.923880
v -0.382683 -0.075612 -0.923880
v -0.000000 -0.075612 -0.882598
v 0.331653 -0.075612 -0.816628
v 0.612816 -0.075612 -0.628761
v 0.800682 -0.075612 -0.347599
v 0.866652 -0.075612 -0.015946
v 0.800682 -0.075612 0.315708
v 0.612816 -0.075612 0.596870
v 0.331653 -0.075612 0.784737
v -0.000000 -0.075612 0.850707
v -0.331653 -0.075612 0.784737
v -0.612816 -0.075612 0.596870
v -0.800682 -0.075612 0.315708
v -0.866652 -0.075612 -0.015946
v -0.800682 -0.075612 -0.347599
v -0.612816 -0.075612 -0.628761
v -0.331653 -0.075612 -0.816628
v -0.000000 -0.031436 -0.826630
v 0.313178 -0.031436 -0.764335
v 0.578678 -0.031436 -0.586934
v 0.756080 -0.031436 -0.321434
v 0.818375 -0.031436 -0.008256
v 0.756080 -0.031436 0.304923
v 0.578678 -0.031436 0.570422
v 0.313178 -0.031436 0.747824
v -0.000000 -0.031436 0.810119
v -0.313178 -0.031436 0.747824
v -0.578678 -0.031436 0.570422
v -0.756080 -0.031436 0.304923
v -0.818375 -0.031436 -0.008256
v -0.756080 -0.031436 -0.321434
v -0.578678 -0.031436 -0.586934
v -0.313178 -0.031436 -0.764335
vt 1.000000 0.500000
vt 1.000000 1.000000
vt 0.937500 1.000000
vt 0.937500 0.500000
vt 0.875000 1.000000
vt 0.875000 0.500000
vt 0.812500 1.000000
vt 0.812500 0.500000
vt 0.750000 1.000000
vt 0.750000 0.500000
vt 0.687500 1.000000
vt 0.687500 0.500000
vt 0.625000 1.000000
vt 0.625000 0.500000
vt 0.562500 1.000000
vt 0.562500 0.500000
vt 0.500000 1.000000
vt 0.500000 0.500000
vt 0.437500 1.000000
vt 0.437500 0.500000
vt 0.375000 1.000000
vt 0.375000 0.500000
vt 0.312500 1.000000
vt 0.312500 0.500000
vt 0.250000 1.000000
vt 0.250000 0.500000
vt 0.187500 1.000000
vt 0.187500 0.500000
vt 0.125000 1.000000
vt 0.125000 0.500000
vt 0.687500 1.000000
vt 0.625000 1.000000
vt 0.062500 1.000000
vt 0.062500 0.500000
vt 0.000000 1.000000
vt 0.000000 0.500000
vt 0.750000 0.490000
vt 0.841844 0.471731
vt 0.919706 0.419706
vt 0.971731 0.341844
vt 0.990000 0.250000
vt 0.971731 0.158156
vt 0.919706 0.080294
vt 0.841844 0.028269
vt 0.750000 0.010000
vt 0.658156 0.028269
vt 0.580294 0.080294
vt 0.528269 0.158156
vt 0.510000 0.250000
vt 0.528269 0.341844
vt 0.580294 0.419706
vt 0.658156 0.471731
vt 0.937500 1.000000
vt 1.000000 1.000000
vt 1.000000 1.000000
vt 0.937500 1.000000
vt 0.375000 1.000000
vt 0.312500 1.000000
vt 0.062500 1.000000
vt 0.000000 1.000000
vt 0.812500 1.000000
vt 0.750000 1.000000
vt 0.500000 1.000000
vt 0.437500 1.000000
vt 0.187500 1.000000
vt 0.125000 1.000000
vt 0.875000 1.000000
vt 0.562500 1.000000
vt 0.250000 1.000000
vt 0.341844 0.471731
vt 0.250000 0.490000
vt 0.158156 0.471731
vt 0.080294 0.419706
vt 0.028269 0.341844
vt 0.010000 0.250000
vt 0.028269 0.158156
vt 0.080294 0.080294
vt 0.158156 0.028269
vt 0.250000 0.010000
vt 0.341844 0.028269
vt 0.419706 0.080294
vt 0.471731 0.158156
vt 0.490000 0.250000
vt 0.471731 0.341844
vt 0.419706 0.419706
vt 0.062500 1.000000
vt 0.000000 1.000000
vt 0.500000 1.000000
vt 0.437500 1.000000
vt 0.875000 1.000000
vt 0.375000 1.000000
vt 0.812500 1.000000
vt 0.312500 1.000000
vt 0.750000 1.000000
vt 0.250000 1.000000
vt 0.687500 1.000000
vt 0.187500 1.000000
vt 0.625000 1.000000
vt 0.125000 1.000000
vt 0.562500 1.000000
vt 1.000000 0.500000
vt 0.937500 0.500000
vt 0.937500 1.000000
vt 1.000000 1.000000
vt 0.875000 0.500000
vt 0.875000 1.000000
vt 0.812500 0.500000
vt 0.812500 1.000000
vt 0.750000 0.500000
vt 0.750000 1.000000
vt 0.687500 0.500000
vt 0.687500 1.000000
vt 0.625000 0.500000
vt 0.625000 1.000000
vt 0.562500 0.500000
vt 0.562500 1.000000
vt 0.500000 0.500000
vt 0.500000 1.000000
vt 0.437500 0.500000
vt 0.437500 1.000000
vt 0.375000 0.500000
vt 0.375000 1.000000
vt 0.312500 0.500000
vt 0.312500 1.000000
vt 0.250000 0.500000
vt 0.250000 1.000000
vt 0.187500 0.500000
vt 0.187500 1.000000
vt 0.125000 0.500000
vt 0.125000 1.000000
vt 0.625000 1.000000
vt 0.687500 1.000000
vt 0.062500 0.500000
vt 0.062500 1.000000
vt 0.000000 0.500000
vt 0.000000 1.000000
vt 0.750000 0.490000
vt 0.658156 0.471731
vt 0.580294 0.419706
vt 0.528269 0.341844
vt 0.510000 0.250000
vt 0.528269 0.158156
vt 0.580294 0.080294
vt 0.658156 0.028269
vt 0.750000 0.010000
vt 0.841844 0.028269
vt 0.919706 0.080294
vt 0.971731 0.158156
vt 0.990000 0.250000
vt 0.971731 0.341844
vt 0.919706 0.419706
vt 0.841844 0.471731
vt 0.937500 1.000000
vt 0.937500 1.000000
vt 1.000000 1.000000
vt 1.000000 1.000000
vt 0.312500 1.000000
vt 0.375000 1.000000
vt 0.000000 1.000000
vt 0.062500 1.000000
vt 0.750000 1.000000
vt 0.812500 1.000000
vt 0.437500 1.000000
vt 0.500000 1.000000
vt 0.125000 1.000000
vt 0.187500 1.000000
vt 0.875000 1.000000
vt 0.562500 1.000000
vt 0.250000 1.000000
vt 0.341844 0.471731
vt 0.419706 0.419706
vt 0.471731 0.341844
vt 0.490000 0.250000
vt 0.471731 0.158156
vt 0.419706 0.080294
vt 0.341844 0.028269
vt 0.250000 0.010000
vt 0.158156 0.028269
vt 0.080294 0.080294
vt 0.028269 0.158156
vt 0.010000 0.250000
vt 0.028269 0.341844
vt 0.080294 0.419706
vt 0.158156 0.471731
vt 0.250000 0.490000
vt 0.000000 1.000000
vt 0.062500 1.000000
vt 0.437500 1.000000
vt 0.500000 1.000000
vt 0.875000 1.000000
vt 0.375000 1.000000
vt 0.812500 1.000000
vt 0.312500 1.000000
vt 0.750000 1.000000
vt 0.250000 1.000000
vt 0.687500 1.000000
vt 0.187500 1.000000
vt 0.625000 1.000000
vt 0.125000 1.000000
vt 0.562500 1.000000
vn 0.1951 0.0000 -0.9808
vn 0.5556 0.0000 -0.8315
vn 0.8315 0.0000 -0.5556
vn 0.9808 0.0000 -0.1951
vn 0.9808 0.0000 0.1951
vn 0.8315 0.0000 0.5556
vn 0.5556 0.0000 0.8315
vn 0.1951 0.0000 0.9808
vn -0.1951 0.0000 0.9808
vn -0.5556 0.0000 0.8315
vn -0.8315 0.0000 0.5556
vn -0.9808 0.0000 0.1951
vn -0.9808 0.0000 -0.1951
vn -0.8315 0.0000 -0.5556
vn 0.0000 1.0000 0.0000
vn -0.5556 0.0000 -0.8315
vn -0.1951 0.0000 -0.9808
vn 0.0000 -1.0000 0.0000
vn -0.1223 0.7790 0.6149
vn 0.1223 0.7790 0.6149
vn 0.1449 0.6694 -0.7286
vn -0.3528 0.7725 0.5280
vn 0.4074 0.6799 -0.6097
vn -0.5406 0.7598 0.3612
vn 0.5953 0.6982 -0.3978
vn -0.6578 0.7417 0.1309
vn 0.6805 0.7201 -0.1354
vn -0.6805 0.7201 -0.1354
vn 0.6578 0.7417 0.1309
vn -0.5953 0.6982 -0.3978
vn 0.5406 0.7598 0.3612
vn -0.4074 0.6799 -0.6097
vn 0.3528 0.7725 0.5280
vn -0.1449 0.6694 -0.7286
vn -0.1223 -0.7790 0.6149
vn 0.1223 -0.7790 0.6149
vn 0.1449 -0.6694 -0.7286
vn -0.3528 -0.7725 0.5280
vn 0.4074 -0.6799 -0.6097
vn -0.5406 -0.7598 0.3612
vn 0.5953 -0.6982 -0.3978
vn -0.6578 -0.7417 0.1309
vn 0.6805 -0.7201 -0.1354
vn -0.6805 -0.7201 -0.1354
vn 0.6578 -0.7417 0.1309
vn -0.5953 -0.6982 -0.3978
vn 0.5406 -0.7598 0.3612
vn -0.4074 -0.6799 -0.6097
vn 0.3528 -0.7725 0.5280
vn -0.1449 -0.6694 -0.7286
usemtl None
s off
f 9/15/7 10/16/7 12/17/7 11/18/7
f 11/18/8 12/17/8 14/19/8 13/20/8
f 13/20/9 14/19/9 16/21/9 15/22/9
f 15/22/10 16/21/10 18/23/10 17/24/10
f 17/24/11 18/23/11 20/25/11 19/26/11
f 19/26/12 20/25/12 22/27/12 21/28/12
f 21/28/13 22/27/13 24/29/13 23/30/13
f 23/30/14 24/29/14 26/31/14 25/32/14
f 25/32/15 26/31/15 28/33/15 27/34/15
f 27/34/16 28/33/16 30/35/16 29/36/16
f 29/36/17 30/35/17 32/37/17 31/38/17
f 31/38/18 32/37/18 34/39/18 33/40/18
f 33/40/19 34/39/19 36/41/19 35/42/19
f 35/42/20 36/41/20 38/43/20 37/44/20
f 22/27/21 20/25/21 46/45/21 47/46/21
f 37/44/22 38/43/22 40/47/22 39/48/22
f 39/48/23 40/47/23 10/49/23 9/50/23
f 9/51/24 11/52/24 13/53/24 15/54/24 17/55/24 19/56/24 21/57/24 23/58/24 25/59/24 27/60/24 29/61/24 31/62/24 33/63/24 35/64/24 37/65/24 39/66/24
f 42/67/25 41/68/25 57/69/25 58/70/25
f 32/37/21 30/35/21 51/71/21 52/72/21
f 10/49/21 40/47/21 56/73/21 41/74/21
f 18/23/21 16/21/21 44/75/21 45/76/21
f 28/33/21 26/31/21 49/77/21 50/78/21
f 38/43/21 36/41/21 54/79/21 55/80/21
f 14/19/21 12/17/21 42/67/21 43/81/21
f 24/29/21 22/27/21 47/46/21 48/82/21
f 34/39/21 32/37/21 52/72/21 53/83/21
f 20/25/21 18/23/21 45/76/21 46/45/21
f 30/35/21 28/33/21 50/78/21 51/71/21
f 40/47/21 38/43/21 55/80/21 56/73/21
f 16/21/21 14/19/21 43/81/21 44/75/21
f 26/31/21 24/29/21 48/82/21 49/77/21
f 12/17/21 10/16/21 41/68/21 42/67/21
f 36/41/21 34/39/21 53/83/21 54/79/21
f 58/84/21 57/85/21 72/86/21 71/87/21 70/88/21 69/89/21 68/90/21 67/91/21 66/92/21 65/93/21 64/94/21 63/95/21 62/96/21 61/97/21 60/98/21 59/99/21
f 41/74/26 56/73/26 72/100/26 57/101/26
f 50/78/27 49/77/27 65/102/27 66/103/27
f 43/81/28 42/67/28 58/70/28 59/104/28
f 51/71/29 50/78/29 66/103/29 67/105/29
f 44/75/30 43/81/30 59/104/30 60/106/30
f 52/72/31 51/71/31 67/105/31 68/107/31
f 45/76/32 44/75/32 60/106/32 61/108/32
f 53/83/33 52/72/33 68/107/33 69/109/33
f 46/45/34 45/76/34 61/108/34 62/110/34
f 54/79/35 53/83/35 69/109/35 70/111/35
f 47/46/36 46/45/36 62/110/36 63/112/36
f 55/80/37 54/79/37 70/111/37 71/113/37
f 48/82/38 47/46/38 63/112/38 64/114/38
f 56/73/39 55/80/39 71/113/39 72/100/39
f 49/77/40 48/82/40 64/114/40 65/102/40
f 73/115/7 75/116/7 76/117/7 74/118/7
f 75/116/8 77/119/8 78/120/8 76/117/8
f 77/119/9 79/121/9 80/122/9 78/120/9
f 79/121/10 81/123/10 82/124/10 80/122/10
f 81/123/11 83/125/11 84/126/11 82/124/11
f 83/125/12 85/127/12 86/128/12 84/126/12
f 85/127/13 87/129/13 88/130/13 86/128/13
f 87/129/14 89/131/14 90/132/14 88/130/14
f 89/131/15 91/133/15 92/134/15 90/132/15
f 91/133/16 93/135/16 94/136/16 92/134/16
f 93/135/17 95/137/17 96/138/17 94/136/17
f 95/137/18 97/139/18 98/140/18 96/138/18
f 97/139/19 99/141/19 100/142/19 98/140/19
f 99/141/20 101/143/20 102/144/20 100/142/20
f 86/128/24 111/145/24 110/146/24 84/126/24
f 101/143/22 103/147/22 104/148/22 102/144/22
f 103/147/23 73/149/23 74/150/23 104/148/23
f 73/151/21 103/152/21 101/153/21 99/154/21 97/155/21 95/156/21 93/157/21 91/158/21 89/159/21 87/160/21 85/161/21 83/162/21 81/163/21 79/164/21 77/165/21 75/166/21
f 106/167/41 122/168/41 121/169/41 105/170/41
f 96/138/24 116/171/24 115/172/24 94/136/24
f 74/150/24 105/173/24 120/174/24 104/148/24
f 82/124/24 109/175/24 108/176/24 80/122/24
f 92/134/24 114/177/24 113/178/24 90/132/24
f 102/144/24 119/179/24 118/180/24 100/142/24
f 78/120/24 107/181/24 106/167/24 76/117/24
f 88/130/24 112/182/24 111/145/24 86/128/24
f 98/140/24 117/183/24 116/171/24 96/138/24
f 84/126/24 110/146/24 109/175/24 82/124/24
f 94/136/24 115/172/24 114/177/24 92/134/24
f 104/148/24 120/174/24 119/179/24 102/144/24
f 80/122/24 108/176/24 107/181/24 78/120/24
f 90/132/24 113/178/24 112/182/24 88/130/24
f 76/117/24 106/167/24 105/170/24 74/118/24
f 100/142/24 118/180/24 117/183/24 98/140/24
f 122/184/24 123/185/24 124/186/24 125/187/24 126/188/24 127/189/24 128/190/24 129/191/24 130/192/24 131/193/24 132/194/24 133/195/24 134/196/24 135/197/24 136/198/24 121/199/24
f 105/173/42 121/200/42 136/201/42 120/174/42
f 114/177/43 130/202/43 129/203/43 113/178/43
f 107/181/44 123/204/44 122/168/44 106/167/44
f 115/172/45 131/205/45 130/202/45 114/177/45
f 108/176/46 124/206/46 123/204/46 107/181/46
f 116/171/47 132/207/47 131/205/47 115/172/47
f 109/175/48 125/208/48 124/206/48 108/176/48
f 117/183/49 133/209/49 132/207/49 116/171/49
f 110/146/50 126/210/50 125/208/50 109/175/50
f 118/180/51 134/211/51 133/209/51 117/183/51
f 111/145/52 127/212/52 126/210/52 110/146/52
f 119/179/53 135/213/53 134/211/53 118/180/53
f 112/182/54 128/214/54 127/212/54 111/145/54
f 120/174/55 136/201/55 135/213/55 119/179/55
f 113/178/56 129/203/56 128/214/56 112/182/56
